<svg width="93" height="92" viewBox="0 0 93 92" fill="none" xmlns="http://www.w3.org/2000/svg">
<g clip-path="url(#clip0_396_2479)">
<path d="M5.8125 77.625H87.1875" stroke="white" stroke-width="3" stroke-linecap="round" stroke-linejoin="round"/>
<path d="M52.3125 77.625V14.375C52.3125 13.6125 52.0063 12.8812 51.4613 12.3421C50.9163 11.8029 50.177 11.5 49.4062 11.5H14.5312C13.7605 11.5 13.0212 11.8029 12.4762 12.3421C11.9312 12.8812 11.625 13.6125 11.625 14.375V77.625" stroke="white" stroke-width="3" stroke-linecap="round" stroke-linejoin="round"/>
<path d="M81.375 77.625V37.375C81.375 36.6125 81.0688 35.8812 80.5238 35.3421C79.9788 34.8029 79.2395 34.5 78.4688 34.5H52.3125" stroke="white" stroke-width="3" stroke-linecap="round" stroke-linejoin="round"/>
<path d="M23.25 25.875H34.875" stroke="white" stroke-width="3" stroke-linecap="round" stroke-linejoin="round"/>
<path d="M29.0625 48.875H40.6875" stroke="white" stroke-width="3" stroke-linecap="round" stroke-linejoin="round"/>
<path d="M23.25 63.25H34.875" stroke="white" stroke-width="3" stroke-linecap="round" stroke-linejoin="round"/>
<path d="M63.9375 63.25H69.75" stroke="white" stroke-width="3" stroke-linecap="round" stroke-linejoin="round"/>
<path d="M63.9375 48.875H69.75" stroke="white" stroke-width="3" stroke-linecap="round" stroke-linejoin="round"/>
</g>
<defs>
<clipPath id="clip0_396_2479">
<rect width="93" height="92" fill="white"/>
</clipPath>
</defs>
</svg>
