<svg width="93" height="92" viewBox="0 0 93 92" fill="none" xmlns="http://www.w3.org/2000/svg">
<g clip-path="url(#clip0_396_2501)">
<path d="M17.9459 33.9971C15.9422 31.8095 14.8656 28.9435 14.9391 25.9923C15.0125 23.0412 16.2304 20.2311 18.3404 18.1437C20.4505 16.0563 23.2912 14.8515 26.2744 14.7789C29.2576 14.7062 32.1548 15.7712 34.3662 17.7533L75.0537 58.0033C77.0573 60.1909 78.1339 63.057 78.0605 66.0081C77.987 68.9592 76.7692 71.7694 74.6591 73.8567C72.549 75.9441 69.7083 77.1489 66.7251 77.2215C63.7419 77.2942 60.8447 76.2292 58.6334 74.2471L17.9459 33.9971Z" stroke="white" stroke-width="3" stroke-linecap="round" stroke-linejoin="round"/>
<path d="M58.6334 17.7533C60.8447 15.7712 63.7419 14.7062 66.7251 14.7789C69.7083 14.8515 72.549 16.0563 74.6591 18.1437C76.7692 20.2311 77.987 23.0412 78.0605 25.9923C78.1339 28.9435 77.0573 31.8095 75.0537 33.9971L34.3662 74.2471C32.1548 76.2292 29.2576 77.2942 26.2744 77.2215C23.2912 77.1489 20.4505 75.9441 18.3404 73.8567C16.2304 71.7694 15.0125 68.9592 14.9391 66.0081C14.8656 63.057 15.9422 60.1909 17.9459 58.0033L58.6334 17.7533Z" stroke="white" stroke-width="3" stroke-linecap="round" stroke-linejoin="round"/>
<path opacity="0.5" d="M46.5 47.4375C47.3025 47.4375 47.9531 46.7939 47.9531 46C47.9531 45.2061 47.3025 44.5625 46.5 44.5625C45.6975 44.5625 45.0469 45.2061 45.0469 46C45.0469 46.7939 45.6975 47.4375 46.5 47.4375Z" stroke="white" stroke-width="3" stroke-linecap="round" stroke-linejoin="round"/>
<path d="M46.5 49.5938C48.5063 49.5938 50.1328 47.9848 50.1328 46C50.1328 44.0152 48.5063 42.4062 46.5 42.4062C44.4937 42.4062 42.8672 44.0152 42.8672 46C42.8672 47.9848 44.4937 49.5938 46.5 49.5938Z" fill="white"/>
</g>
<defs>
<clipPath id="clip0_396_2501">
<rect width="93" height="92" fill="white"/>
</clipPath>
</defs>
</svg>
