<svg width="93" height="93" viewBox="0 0 93 93" fill="none" xmlns="http://www.w3.org/2000/svg">
<path d="M11.5312 23.0645V51.8955" stroke="white" stroke-width="2.5" stroke-linecap="round" stroke-linejoin="round"/>
<path d="M19.5332 77.8433C22.418 73.4186 26.361 69.7836 31.0052 67.2675C35.6493 64.7513 40.8479 63.4336 46.1298 63.4336C51.4118 63.4336 56.6103 64.7513 61.2545 67.2675C65.8986 69.7836 69.8417 73.4186 72.7264 77.8433" stroke="white" stroke-width="2.5" stroke-linecap="round" stroke-linejoin="round"/>
<path d="M80.7257 23.0656L46.1285 34.598L11.5312 23.0656L46.1285 11.5332L80.7257 23.0656Z" stroke="white" stroke-width="2.5" stroke-linecap="round" stroke-linejoin="round"/>
<path d="M61.015 29.623C63.6596 32.5111 65.407 36.1062 66.0439 39.9701C66.6809 43.834 66.1799 47.7997 64.6022 51.3839C63.0244 54.968 60.438 58.0157 57.1582 60.1554C53.8784 62.2951 50.047 63.4344 46.1309 63.4344C42.2149 63.4344 38.3835 62.2951 35.1037 60.1554C31.8239 58.0157 29.2375 54.968 27.6597 51.3839C26.082 47.7997 25.581 43.834 26.218 39.9701C26.8549 36.1062 28.6022 32.5111 31.2469 29.623" stroke="white" stroke-width="2.5" stroke-linecap="round" stroke-linejoin="round"/>
</svg>
