<svg width="149" height="150" viewBox="0 0 149 150" fill="none" xmlns="http://www.w3.org/2000/svg">
<g filter="url(#filter0_d_51_3)">
<rect x="8" y="8" width="133" height="133" rx="8" fill="#F6F7FC"/>
</g>
<path d="M81.1726 32.0442H77.0081V76.5106H81.1726V32.0442Z" fill="#000052"/>
<path d="M77.0079 32.0442C62.5059 32.0442 50.1184 38.4526 41.5908 50.3691L77.0079 76.5106V32.0442Z" fill="#0100A8"/>
<path opacity="0.1" d="M73.7808 32.1483C73.6331 32.1483 73.4945 32.1483 73.3468 32.1806C74.6026 34.346 75.3829 36.7561 74.9858 39.1985C74.6488 41.3085 72.6035 42.3888 70.9506 42.9244C69.2504 43.4288 67.4882 43.693 65.7149 43.7093C65.0824 42.2533 64.263 40.8859 63.2771 39.6417C62.1092 38.1568 60.758 36.8257 59.2557 35.6803C59.1218 35.7357 58.9833 35.8004 58.8494 35.8696C61.6051 37.911 63.8064 40.6092 65.2532 43.7185C60.3453 43.7601 54.7079 42.5412 51.0374 40.5559L50.6819 40.8237C54.4725 42.9521 60.3268 44.2264 65.4332 44.1341C66.5679 46.7528 66.8222 49.669 66.1581 52.4447C65.8356 53.7789 65.334 55.0634 64.6668 56.263C62.9287 55.738 61.1166 55.4994 59.3018 55.5566C56.0376 55.6628 53.5029 56.7108 52.344 58.3268L52.658 58.5576C53.7383 57.0525 56.1715 56.0691 59.3203 55.9629C61.067 55.8897 62.8141 56.0954 64.496 56.5723C62.9643 59.2673 60.4388 61.2559 57.4597 62.1127L57.8521 62.4036C60.8326 61.4602 63.345 59.4229 64.8838 56.7016C69.6809 58.2575 72.3172 62.0342 72.8066 65.6724C73.1287 68.0116 72.6398 70.3906 71.4215 72.4133L71.7308 72.6395C72.4674 71.4224 72.9562 70.0717 73.1691 68.6651C73.3821 67.2585 73.315 65.8237 72.9718 64.4431C72.6286 63.0625 72.016 61.7633 71.1691 60.6202C70.3223 59.4771 69.258 58.5125 68.0372 57.782C67.099 57.2052 66.0964 56.7403 65.05 56.3969C65.7129 55.1855 66.2142 53.8925 66.5413 52.5509C67.2158 49.7444 66.9846 46.7965 65.8811 44.1295C67.6473 44.0983 69.401 43.8265 71.0937 43.3215C73.6192 42.5089 75.1059 41.1145 75.4014 39.2862C75.7707 36.8253 75.0551 34.3968 73.7808 32.1483Z" fill="white"/>
<path d="M77.0498 125.583H81.2051C90.4609 125.582 99.4708 122.604 106.903 117.088H102.748C95.3155 122.604 86.3056 125.582 77.0498 125.583Z" fill="#D7D7D7"/>
<path d="M77.0079 81.127L41.5908 107.255C44.9196 111.967 49.1562 115.968 54.052 119.021C58.9478 122.075 64.4041 124.119 70.1008 125.035C75.7975 125.951 81.6198 125.72 87.226 124.356C92.8321 122.991 98.1093 120.521 102.748 117.089L77.0079 81.127Z" fill="#EBEBEB"/>
<path opacity="0.1" d="M81.9574 88.0376L81.6111 87.5759C79.0785 87.215 76.4996 87.7559 74.3254 89.1041C73.3694 89.6876 72.4819 90.3768 71.6799 91.1587C70.8972 89.9932 69.9659 88.9347 68.9097 88.0099C68.7204 87.839 68.5265 87.6775 68.3233 87.5482L67.9817 87.7975C68.2033 87.9683 68.4434 88.1484 68.6419 88.3377C69.7027 89.2527 70.6346 90.3073 71.4121 91.4726C70.1253 92.7994 69.062 94.3259 68.2633 95.9927C66.3288 100.042 66.555 103.689 68.8312 105.074C69.9855 105.772 71.3013 105.333 72.3586 103.897C74.2054 101.385 74.9026 96.2466 71.8969 91.4726C74.958 88.4162 78.7393 87.4974 81.9574 88.0376ZM72.0169 103.634C71.0935 104.885 69.9808 105.287 69.0251 104.705C66.9336 103.435 66.7674 99.991 68.6096 96.1451C69.3585 94.5285 70.3624 93.0429 71.5829 91.745C74.4455 96.339 73.7945 101.224 72.0169 103.634ZM90.6974 100.254C90.6335 100.486 90.5388 100.708 90.4157 100.914C90.3529 101.047 90.2488 101.156 90.1191 101.225C89.9893 101.294 89.8408 101.32 89.6955 101.298C89.3538 101.224 88.9614 100.259 89.1322 98.6983C89.1322 98.569 89.1738 98.3889 89.2107 98.1719L88.8921 97.7102C88.8203 98.0146 88.7664 98.3229 88.7305 98.6336C88.5505 100.25 88.9198 101.524 89.6124 101.667C90.208 101.787 90.6974 101.408 90.9975 100.628L90.6974 100.254ZM83.8134 97.5394C82.1651 97.3778 80.7754 98.1535 79.6997 99.8479C77.2342 103.712 76.8648 111.751 78.4069 118.113C76.0513 119.822 73.2048 120.721 70.2948 120.675C68.8965 120.646 67.5083 120.43 66.1672 120.033C66.3152 118.191 66.1592 116.336 65.7055 114.544C64.5928 110.199 62.0765 107.544 59.4448 107.946C58.1105 108.149 57.3764 109.331 57.4918 111.113C57.6904 114.225 60.4467 118.616 65.8255 120.347C65.7125 121.56 65.428 122.751 64.9806 123.884L65.35 123.99L65.4469 123.722C65.807 122.662 66.044 121.564 66.1533 120.449C67.5041 120.844 68.9014 121.059 70.3086 121.086C73.2424 121.137 76.1172 120.26 78.5223 118.579C78.9464 120.319 79.605 121.994 80.4799 123.556C80.8474 124.206 81.294 124.808 81.8096 125.348L82.3175 125.283C81.734 124.711 81.2322 124.062 80.8262 123.353C79.9478 121.775 79.2965 120.081 78.8917 118.321C80.1979 117.37 81.3758 116.254 82.396 115.001C85.1662 111.626 87.013 107.212 87.2623 103.458C87.4793 99.9772 86.1865 97.7702 83.818 97.5394H83.8134ZM65.844 119.918C60.7053 118.233 58.0689 114.068 57.8796 111.081C57.7827 109.53 58.3829 108.505 59.4864 108.334C61.9057 107.969 64.2419 110.499 65.3038 114.632C65.763 116.354 65.9454 118.138 65.844 119.918ZM86.8653 103.421C86.5698 108.191 83.541 114.318 78.7809 117.84C77.3404 111.607 77.6959 103.731 80.0459 100.056C81.034 98.509 82.2898 97.7979 83.7765 97.9411C85.9372 98.1488 87.0638 100.148 86.8653 103.421ZM99.2804 112.249C98.3749 114.422 97.2859 116.513 96.0254 118.501C95.082 119.968 93.9997 121.341 92.7935 122.601C93.0936 122.485 93.3937 122.36 93.6892 122.24C96.4594 119.147 98.4724 115.218 99.562 112.655L99.2804 112.249Z" fill="#0100A8"/>
<path d="M102.748 117.089H106.912L81.1726 81.127H77.0081L102.748 117.089Z" fill="#F5F5F5"/>
<path d="M102.748 112.472H106.903C126.47 98.0391 130.805 70.2308 116.599 50.3684C113.941 46.5698 110.664 43.2454 106.903 40.5342H102.748C106.507 43.2469 109.784 46.5711 112.444 50.3684C126.655 70.2308 122.342 98.0391 102.748 112.472Z" fill="white"/>
<path d="M102.748 40.5535L77.0081 76.5292L102.748 112.491C122.319 98.0584 126.655 70.2501 112.444 50.3877C109.784 46.5904 106.507 43.2662 102.748 40.5535Z" fill="#002962"/>
<path opacity="0.1" d="M118.215 91.5735C118.27 91.4166 118.326 91.2596 118.372 91.1118C113.709 88.1893 105.13 86.878 97.974 87.6768C96.2823 84.6078 95.6342 81.072 96.1272 77.6025C96.373 75.9369 96.8388 74.3114 97.5123 72.7685C99.6953 73.2136 101.936 73.2993 104.147 73.0224C109.507 72.3483 113.058 69.7489 112.979 66.5586C112.942 64.938 111.636 63.8853 109.493 63.7468C105.744 63.5067 100.084 66.143 97.203 72.3021C91.5009 71.0186 87.9274 67.0941 86.7039 62.9619L86.3438 63.4559C86.8924 65.1707 87.7895 66.7534 88.9789 68.1049C90.1684 69.4564 91.6243 70.5474 93.2554 71.3095C94.4672 71.8982 95.742 72.3474 97.0552 72.6484C96.383 74.2015 95.9173 75.836 95.6701 77.5101C95.1594 81.0158 95.7737 84.5931 97.4246 87.7276C95.2786 87.9696 93.1755 88.5024 91.1731 89.3112C89.8981 89.8139 88.7445 90.5819 87.7889 91.5643L88.0798 91.966C89.0026 91.0018 90.1222 90.2475 91.3624 89.7544C93.385 88.9459 95.5111 88.4252 97.6785 88.2077C98.615 89.913 99.7663 91.491 101.104 92.9033C104.655 96.6661 109.549 99.5333 113.935 100.424L114.203 99.9857C108.556 98.9054 101.714 94.3622 98.2326 88.1477C105.26 87.4321 113.76 88.7433 118.215 91.5735ZM109.484 64.1993C111.331 64.3193 112.485 65.1919 112.518 66.5401C112.591 69.4811 109.212 71.8912 104.11 72.5422C101.982 72.8311 99.8219 72.7781 97.7108 72.3852C100.509 66.4893 105.888 63.9684 109.484 64.1993Z" fill="white"/>
<path d="M75.4893 24V68.4664L101.229 32.4907C93.4079 26.7009 85.1665 24 75.4893 24Z" fill="#EBEBEB"/>
<path d="M101.229 32.4907H105.384C97.5629 26.7194 89.3169 24 79.6397 24H75.4844C85.1662 24 93.4076 26.7009 101.229 32.4907Z" fill="#F5F5F5"/>
<path opacity="0.1" d="M97.9326 30.2554L97.517 30.0061C97.5799 30.7323 97.5457 31.4636 97.4155 32.1807C97.0276 34.2999 94.9546 35.3434 93.2832 35.8466C91.5618 36.3208 89.7822 36.5509 87.9967 36.5299C87.3914 35.0476 86.5952 33.6507 85.6282 32.3746C83.0381 28.9303 79.2383 26.1093 75.697 25.0151L75.4893 24.9551V25.3752H75.5816C80.0878 26.7603 85.2773 31.1049 87.5304 36.4884C83.4039 36.4245 79.3236 35.6094 75.4893 34.0829V34.5446C79.3806 36.0959 83.5261 36.9115 87.7151 36.9501C88.8067 39.6066 89.006 42.5458 88.283 45.3253C87.9304 46.6595 87.4009 47.9406 86.7086 49.1344C84.9697 48.5746 83.1519 48.2987 81.3252 48.3172C78.9151 48.3495 76.8836 48.8989 75.5031 49.8131V50.2748C76.8143 49.3098 78.8551 48.7281 81.3298 48.6958C83.0898 48.6561 84.8447 48.8977 86.5285 49.4114C83.7168 53.9453 79.0998 55.5058 76.1911 54.9934C75.9572 54.9546 75.727 54.8959 75.5031 54.8179V55.2334C75.7052 55.2999 75.912 55.3508 76.1218 55.3858C79.1552 55.9214 84.0076 54.2962 86.9164 49.5407C87.4715 49.7311 88.013 49.9594 88.5369 50.224L88.7447 49.947C88.2074 49.6799 87.6538 49.4471 87.0872 49.2498C87.7805 48.0462 88.3115 46.756 88.6662 45.4131C89.3985 42.6094 89.2273 39.6461 88.1768 36.9455C89.9464 36.9446 91.7076 36.7039 93.4125 36.2298C95.9657 35.4588 97.4893 34.0875 97.8218 32.2546C97.9367 31.5948 97.9739 30.9238 97.9326 30.2554Z" fill="#0100A8"/>
<path d="M75.4893 68.4671H79.6492L105.394 32.4913H101.229L75.4893 68.4671Z" fill="#D7D7D7"/>
<path d="M33.2109 51.6309C20.9297 68.7831 20.9297 90.8755 33.2109 108.055L71.449 79.8454L33.2109 51.6309Z" fill="#005EFF"/>
<g opacity="0.1">
<path d="M71.449 79.8454H75.9414L37.7033 51.6309H33.2109L71.449 79.8454Z" fill="#0100A8"/>
</g>
<g opacity="0.2">
<path d="M33.2112 108.06H37.7035L75.9416 79.8496H71.4493L33.2112 108.06Z" fill="#0100A8"/>
</g>
<path d="M71.0103 79.8454H75.5027L37.2646 51.6309H32.7722L71.0103 79.8454Z" fill="#005EFF"/>
<path d="M32.7722 108.056H37.2646L75.5027 79.8457H71.0103L32.7722 108.056Z" fill="#005EFF"/>
<g opacity="0.1">
<mask id="path-21-inside-1_51_3" fill="white">
<path d="M60.6775 71.9008L60.2435 71.5823C60.7052 75.3544 60.5113 79.8098 57.8242 82.6631C56.3514 84.2421 54.029 83.9974 52.3438 83.5126C50.6338 82.9733 49.0081 82.1962 47.5144 81.2041C47.8003 79.6283 47.8826 78.0223 47.7591 76.4255C47.4452 72.1086 45.76 67.6532 43.3637 64.8183C41.1476 62.182 38.7144 61.4849 36.8491 62.9392C35.5564 63.9503 35.0947 65.4555 35.464 67.3993C36.332 71.8593 41.5677 77.8753 47.0297 81.398C46.5081 84.2365 45.079 86.8288 42.9575 88.7853C41.9363 89.7213 40.7932 90.5149 39.5593 91.1445C38.3965 89.729 37.0119 88.5112 35.4594 87.5387C31.6873 85.184 28.0722 84.9993 26.4516 87.077C25.6344 88.1343 25.9207 89.4824 27.2181 90.6875C29.485 92.7836 34.4668 94.044 39.5085 91.6109C42.0848 94.8889 42.6066 98.6056 41.817 101.671L42.3572 101.274C42.8748 98.9217 42.5938 96.4637 41.5585 94.2887C41.0888 93.2812 40.5065 92.3302 39.8225 91.4539C41.0611 90.8152 42.2099 90.0157 43.2391 89.0761C45.384 87.1013 46.8511 84.5 47.4313 81.6427C48.9247 82.6022 50.5416 83.3539 52.2376 83.8774C54.8139 84.6161 56.8547 84.2837 58.1243 82.917C60.7376 80.1653 61.1346 75.9361 60.6775 71.9008ZM27.4951 90.4289C26.3685 89.3808 26.11 88.2358 26.7748 87.3586C28.2615 85.4471 31.6689 85.6595 35.2563 87.9034C36.7642 88.8253 38.1155 89.9817 39.2592 91.3292C34.4206 93.6331 29.6743 92.4465 27.4951 90.4289ZM47.122 80.9917C41.8078 77.4967 36.6922 71.5915 35.8657 67.3623C35.5148 65.5755 35.9304 64.2043 37.0985 63.2901C38.7929 61.9604 40.9675 62.6253 43.0636 65.1138C46.1109 68.7336 48.1285 75.2066 47.122 80.9917Z"/>
</mask>
<path d="M60.6775 71.9008L61.6712 71.7883L61.6219 71.3536L61.2693 71.0947L60.6775 71.9008ZM60.2435 71.5823L60.8353 70.7761L58.9698 69.4068L59.2509 71.7038L60.2435 71.5823ZM57.8242 82.6631L57.0962 81.9775L57.093 81.981L57.8242 82.6631ZM52.3438 83.5126L52.043 84.4663L52.0552 84.4701L52.0674 84.4737L52.3438 83.5126ZM47.5144 81.2041L46.5305 81.0256L46.413 81.6731L46.9612 82.0371L47.5144 81.2041ZM47.7591 76.4255L46.7618 76.498L46.7621 76.5026L47.7591 76.4255ZM43.3637 64.8183L42.5983 65.4618L42.6 65.4639L43.3637 64.8183ZM36.8491 62.9392L36.2343 62.1506L36.2331 62.1515L36.8491 62.9392ZM35.464 67.3993L34.4816 67.5859L34.4825 67.5903L35.464 67.3993ZM47.0297 81.398L48.0132 81.5788L48.1342 80.9205L47.5717 80.5577L47.0297 81.398ZM42.9575 88.7853L43.6332 89.5224L43.6354 89.5204L42.9575 88.7853ZM39.5593 91.1445L38.7866 91.7793L39.2973 92.401L40.0139 92.0353L39.5593 91.1445ZM35.4594 87.5387L35.9903 86.6912L35.989 86.6904L35.4594 87.5387ZM26.4516 87.077L25.6631 86.4619L25.6604 86.4654L26.4516 87.077ZM27.2181 90.6875L26.5375 91.4202L26.5392 91.4217L27.2181 90.6875ZM39.5085 91.6109L40.2948 90.9929L39.798 90.3608L39.0739 90.7103L39.5085 91.6109ZM41.817 101.671L40.8486 101.422L40.1491 104.138L42.4093 102.477L41.817 101.671ZM42.3572 101.274L42.9495 102.08L43.253 101.857L43.3339 101.489L42.3572 101.274ZM41.5585 94.2887L40.6521 94.7112L40.6556 94.7185L41.5585 94.2887ZM39.8225 91.4539L39.3642 90.5651L38.2919 91.1181L39.0342 92.0692L39.8225 91.4539ZM43.2391 89.0761L43.9133 89.8147L43.9164 89.8118L43.2391 89.0761ZM47.4313 81.6427L47.9719 80.8014L46.7422 80.0114L46.4513 81.4437L47.4313 81.6427ZM52.2376 83.8774L51.9427 84.8329L51.9524 84.8359L51.962 84.8386L52.2376 83.8774ZM58.1243 82.917L57.3992 82.2284L57.3917 82.2364L58.1243 82.917ZM27.4951 90.4289L26.8139 91.1611L26.8157 91.1627L27.4951 90.4289ZM26.7748 87.3586L25.9854 86.7446L25.9779 86.7546L26.7748 87.3586ZM35.2563 87.9034L34.726 88.7513L34.7347 88.7566L35.2563 87.9034ZM39.2592 91.3292L39.6891 92.2321L40.8628 91.6732L40.0216 90.6821L39.2592 91.3292ZM47.122 80.9917L46.5725 81.8272L47.8459 82.6648L48.1072 81.1631L47.122 80.9917ZM35.8657 67.3623L36.8472 67.1705L36.847 67.1696L35.8657 67.3623ZM37.0985 63.2901L37.7148 64.0776L37.7158 64.0768L37.0985 63.2901ZM43.0636 65.1138L43.8287 64.4698L43.8285 64.4696L43.0636 65.1138ZM61.2693 71.0947L60.8353 70.7761L59.6518 72.3884L60.0858 72.707L61.2693 71.0947ZM59.2509 71.7038C59.7076 75.4346 59.4528 79.4752 57.0962 81.9775L58.5522 83.3487C61.5699 80.1443 61.7029 75.2741 61.2361 71.4608L59.2509 71.7038ZM57.093 81.981C56.0489 83.1003 54.2771 83.0282 52.6203 82.5516L52.0674 84.4737C53.781 84.9666 56.6539 85.3839 58.5555 83.3452L57.093 81.981ZM52.6446 82.5589C51.024 82.0478 49.4833 81.3113 48.0677 80.3711L46.9612 82.0371C48.5329 83.081 50.2436 83.8988 52.043 84.4663L52.6446 82.5589ZM48.4984 81.3826C48.7995 79.7225 48.8862 78.0306 48.7562 76.3485L46.7621 76.5026C46.8789 78.014 46.8011 79.5341 46.5305 81.0256L48.4984 81.3826ZM48.7565 76.353C48.4299 71.8619 46.6822 67.1952 44.1275 64.1728L42.6 65.4639C44.8378 68.1112 46.4605 72.3553 46.7618 76.498L48.7565 76.353ZM44.1292 64.1749C42.9443 62.7653 41.6249 61.7792 40.2515 61.3838C38.8348 60.9759 37.427 61.2206 36.2343 62.1506L37.464 63.7278C38.1366 63.2034 38.878 63.0696 39.6982 63.3057C40.5618 63.5544 41.5671 64.2351 42.5983 65.4618L44.1292 64.1749ZM36.2331 62.1515C34.576 63.4476 34.0605 65.3699 34.4816 67.5859L36.4465 67.2126C36.1288 65.5411 36.5368 64.4531 37.4652 63.7269L36.2331 62.1515ZM34.4825 67.5903C34.9639 70.064 36.6142 72.839 38.7582 75.3931C40.92 77.9683 43.6691 80.4205 46.4876 82.2384L47.5717 80.5577C44.9283 78.8528 42.3286 76.5356 40.29 74.1072C38.2337 71.6575 36.8322 69.1945 36.4456 67.2082L34.4825 67.5903ZM46.0461 81.2173C45.5637 83.8427 44.2419 86.2405 42.2795 88.0501L43.6354 89.5204C45.9162 87.4171 47.4524 84.6302 48.0132 81.5788L46.0461 81.2173ZM42.2818 88.0481C41.327 88.9232 40.2584 89.6651 39.1048 90.2538L40.0139 92.0353C41.3281 91.3646 42.5455 90.5194 43.6332 89.5224L42.2818 88.0481ZM40.332 90.5098C39.1006 89.0107 37.6344 87.7211 35.9903 86.6912L34.9285 88.3861C36.3894 89.3013 37.6924 90.4472 38.7866 91.7793L40.332 90.5098ZM35.989 86.6904C34.0023 85.4502 31.9921 84.7388 30.1998 84.647C28.4 84.5548 26.7303 85.0937 25.6631 86.4619L27.2401 87.692C27.7935 86.9825 28.7417 86.5749 30.0976 86.6444C31.461 86.7142 33.1444 87.2724 34.9299 88.3869L35.989 86.6904ZM25.6604 86.4654C25.0743 87.2237 24.8704 88.124 25.0637 89.0345C25.2504 89.9139 25.7882 90.7242 26.5375 91.4202L27.8986 89.9548C27.3505 89.4457 27.0965 88.9794 27.0201 88.6191C26.9502 88.29 27.0117 87.9875 27.2428 87.6885L25.6604 86.4654ZM26.5392 91.4217C29.1341 93.8211 34.5646 95.1072 39.9432 92.5115L39.0739 90.7103C34.3689 92.9809 29.8359 91.7461 27.897 89.9532L26.5392 91.4217ZM38.7223 92.2288C41.1021 95.2568 41.5621 98.6516 40.8486 101.422L42.7855 101.921C43.651 98.5597 43.0676 94.5211 40.2948 90.9929L38.7223 92.2288ZM42.4093 102.477L42.9495 102.08L41.765 100.469L41.2248 100.866L42.4093 102.477ZM43.3339 101.489C43.8992 98.9195 43.5922 96.2347 42.4614 93.8589L40.6556 94.7185C41.5953 96.6928 41.8504 98.9239 41.3806 101.059L43.3339 101.489ZM42.4649 93.8662C41.9633 92.7902 41.3413 91.7745 40.6108 90.8386L39.0342 92.0692C39.6716 92.8859 40.2144 93.7722 40.6521 94.7112L42.4649 93.8662ZM40.2808 92.3427C41.5977 91.6636 42.819 90.8136 43.9133 89.8147L42.5649 88.3376C41.6007 89.2178 40.5245 89.9667 39.3642 90.5651L40.2808 92.3427ZM43.9164 89.8118C46.2162 87.6944 47.7892 84.9053 48.4113 81.8417L46.4513 81.4437C45.913 84.0947 44.5518 86.5082 42.5618 88.3404L43.9164 89.8118ZM46.8908 82.4841C48.4605 83.4925 50.16 84.2827 51.9427 84.8329L52.5325 82.9218C50.9232 82.4252 49.3889 81.7118 47.9719 80.8014L46.8908 82.4841ZM51.962 84.8386C54.7208 85.6297 57.2246 85.3547 58.8569 83.5977L57.3917 82.2364C56.4847 83.2127 54.907 83.6025 52.5133 82.9161L51.962 84.8386ZM58.8495 83.6057C61.7808 80.519 62.1366 75.8971 61.6712 71.7883L59.6839 72.0134C60.1327 75.9752 59.6944 79.8116 57.3992 82.2284L58.8495 83.6057ZM28.1762 89.6968C27.7086 89.2618 27.5012 88.8789 27.4373 88.6035C27.3807 88.36 27.4224 88.1597 27.5718 87.9626L25.9779 86.7546C25.4624 87.4347 25.3009 88.2456 25.4891 89.0559C25.6698 89.8343 26.155 90.548 26.8139 91.1611L28.1762 89.6968ZM27.5642 87.9725C28.0419 87.3583 28.8921 86.9897 30.1642 87.0707C31.4401 87.152 33.0295 87.6901 34.726 88.7512L35.7866 87.0556C33.8957 85.8729 31.9877 85.1828 30.2913 85.0748C28.5912 84.9665 26.9944 85.4474 25.9855 86.7447L27.5642 87.9725ZM34.7347 88.7566C36.1519 89.623 37.4219 90.7099 38.4968 91.9763L40.0216 90.6821C38.8091 89.2536 37.3765 88.0275 35.7779 87.0502L34.7347 88.7566ZM38.8293 90.4263C34.3224 92.5723 30.0238 91.4073 28.1745 89.6951L26.8157 91.1627C29.3249 93.4858 34.5188 94.6939 39.6891 92.2321L38.8293 90.4263ZM47.6715 80.1562C45.0993 78.4646 42.5642 76.1806 40.5774 73.81C38.5709 71.4159 37.2123 69.039 36.8472 67.1705L34.8843 67.5541C35.3456 69.9148 36.958 72.6051 39.0445 75.0947C41.1507 77.6077 43.8305 80.0238 46.5725 81.8272L47.6715 80.1562ZM36.847 67.1696C36.5489 65.6516 36.916 64.7027 37.7148 64.0776L36.4822 62.5026C34.9447 63.7058 34.4808 65.4994 34.8845 67.555L36.847 67.1696ZM37.7158 64.0768C38.2991 63.619 38.9252 63.5085 39.6381 63.7264C40.4029 63.9603 41.319 64.5948 42.2988 65.7581L43.8285 64.4696C42.7121 63.1443 41.4929 62.2021 40.2228 61.8138C38.9007 61.4096 37.5922 61.6315 36.4811 62.5034L37.7158 64.0768ZM42.2986 65.7578C45.1572 69.1535 47.0922 75.3286 46.1368 80.8203L48.1072 81.1631C49.1648 75.0846 47.0645 68.3136 43.8287 64.4698L42.2986 65.7578Z" fill="white" mask="url(#path-21-inside-1_51_3)"/>
</g>
<defs>
<filter id="filter0_d_51_3" x="0" y="0.5" width="149" height="149" filterUnits="userSpaceOnUse" color-interpolation-filters="sRGB">
<feFlood flood-opacity="0" result="BackgroundImageFix"/>
<feColorMatrix in="SourceAlpha" type="matrix" values="0 0 0 0 0 0 0 0 0 0 0 0 0 0 0 0 0 0 127 0" result="hardAlpha"/>
<feOffset dy="0.5"/>
<feGaussianBlur stdDeviation="4"/>
<feComposite in2="hardAlpha" operator="out"/>
<feColorMatrix type="matrix" values="0 0 0 0 0.00392157 0 0 0 0 0 0 0 0 0 0.658824 0 0 0 0.08 0"/>
<feBlend mode="normal" in2="BackgroundImageFix" result="effect1_dropShadow_51_3"/>
<feBlend mode="normal" in="SourceGraphic" in2="effect1_dropShadow_51_3" result="shape"/>
</filter>
</defs>
</svg>
