<svg width="215" height="181" viewBox="0 0 215 181" fill="none" xmlns="http://www.w3.org/2000/svg">
<g filter="url(#filter0_d_56_2)">
<rect x="8.53979" y="28.2969" width="124.447" height="124.447" rx="8" fill="#F6F7FC"/>
</g>
<g opacity="0.8">
<path d="M124.299 57.9745L14.8723 57.9745L14.8723 127.203H124.299V57.9745Z" fill="white"/>
<path d="M124.412 127.312H14.7593L14.7593 57.8613L124.412 57.8613V127.312ZM14.9852 127.086H124.186V58.0873L14.9852 58.0873L14.9852 127.086Z" fill="#A6A6A6"/>
<path d="M122.356 60.6415L14.8723 60.6415L14.8723 78.108H122.356V60.6415Z" fill="#0100A8"/>
<path d="M124.294 60.6357H122.356V127.198H124.294V60.6357Z" fill="#DBDBDB"/>
<path d="M123.346 83.7157C123.28 83.7157 123.214 83.7027 123.154 83.6775C123.093 83.6523 123.037 83.6154 122.991 83.5688C122.944 83.5222 122.907 83.4669 122.882 83.406C122.857 83.3452 122.844 83.2799 122.844 83.2141V61.5221C122.844 61.4563 122.857 61.391 122.882 61.3302C122.907 61.2693 122.944 61.214 122.991 61.1674C123.037 61.1209 123.093 61.0839 123.154 61.0587C123.214 61.0335 123.28 61.0205 123.346 61.0205C123.479 61.0205 123.606 61.0734 123.7 61.1674C123.794 61.2615 123.847 61.3891 123.847 61.5221V83.2141C123.847 83.3471 123.794 83.4747 123.7 83.5688C123.606 83.6629 123.479 83.7157 123.346 83.7157Z" fill="#A6A6A6"/>
<path d="M116.752 63.8868H90.6226V67.3756H116.752V63.8868Z" fill="white"/>
<path d="M116.788 67.4097H90.5771V63.8486H116.788V67.4097ZM90.6585 67.3374H116.72V63.9209H90.6585V67.3374Z" fill="#C7C7C7"/>
<path d="M116.793 63.8486H113.232V67.4097H116.793V63.8486Z" fill="#1F3A46"/>
<path d="M116.115 66.5929L115.794 66.8369L115.211 66.0642L114.994 65.7749C115.038 65.757 115.079 65.7326 115.116 65.7026C115.19 65.6481 115.248 65.5748 115.284 65.4902L115.514 65.793L116.115 66.5929Z" fill="white"/>
<path d="M115.482 64.7526C115.38 64.6203 115.243 64.52 115.086 64.4633C114.928 64.4066 114.758 64.396 114.595 64.4327C114.433 64.4694 114.283 64.5518 114.166 64.6704C114.048 64.7889 113.967 64.9386 113.931 65.1019C113.896 65.2651 113.908 65.435 113.966 65.5917C114.024 65.7484 114.125 65.8853 114.258 65.9863C114.391 66.0873 114.55 66.1482 114.717 66.1618C114.883 66.1754 115.05 66.1412 115.198 66.0631L115.32 65.9818C115.39 65.9289 115.451 65.8648 115.5 65.792C115.609 65.6395 115.665 65.4563 115.662 65.2693C115.659 65.0823 115.596 64.9013 115.482 64.7526ZM115.103 65.7016C115.066 65.7316 115.025 65.7559 114.981 65.7739C114.89 65.8097 114.791 65.8196 114.696 65.8024C114.6 65.7853 114.511 65.7417 114.438 65.6768C114.366 65.6118 114.313 65.5279 114.285 65.4345C114.258 65.3411 114.257 65.2419 114.282 65.148C114.308 65.0541 114.359 64.9692 114.431 64.9028C114.502 64.8365 114.59 64.7913 114.686 64.7723C114.781 64.7533 114.88 64.7612 114.971 64.7953C115.063 64.8293 115.142 64.8881 115.202 64.965C115.258 65.0391 115.293 65.1264 115.305 65.2182C115.317 65.31 115.305 65.4034 115.27 65.4892C115.232 65.5688 115.175 65.6373 115.103 65.6881V65.7016Z" fill="white"/>
<path d="M91.5398 64.5732H91.3545V66.6882H91.5398V64.5732Z" fill="#C7C7C7"/>
<path d="M89.3118 63.8868H29.1257V67.3756H89.3118V63.8868Z" fill="white"/>
<path d="M89.3479 67.4097H29.094V63.8486H89.3479V67.4097ZM29.1618 67.3374H89.2665V63.9209H29.1618V67.3374Z" fill="#C7C7C7"/>
<path d="M30.043 64.5732H29.8577V66.6882H30.043V64.5732Z" fill="#C7C7C7"/>
<path d="M22.5455 66.8225L21.2756 65.6521L22.541 64.4364L22.7398 64.6443L21.6914 65.6475L22.7353 66.6146L22.5455 66.8225Z" fill="white"/>
<path d="M25.6099 64.4364L26.8797 65.6023L25.6144 66.818L25.4155 66.6146L26.464 65.6069L25.4201 64.6443L25.6099 64.4364Z" fill="white"/>
<path d="M35.4571 106.156H20.8015V107.39H35.4571V106.156Z" fill="#A6A6A6"/>
<path d="M83.0845 109.018H20.8015V110.251H83.0845V109.018Z" fill="#EBEBEB"/>
<path d="M83.0845 111.734H20.8015V112.968H83.0845V111.734Z" fill="#EBEBEB"/>
<path d="M83.0845 114.445H20.8015V115.679H83.0845V114.445Z" fill="#EBEBEB"/>
<path d="M83.0845 117.158H20.8015V118.392H83.0845V117.158Z" fill="#EBEBEB"/>
<path d="M83.0845 119.869H20.8015V121.103H83.0845V119.869Z" fill="#EBEBEB"/>
<path d="M101.974 82.1376H87.3188V83.3713H101.974V82.1376Z" fill="#A6A6A6"/>
<path d="M118.46 84.998H87.3188V86.2318H118.46V84.998Z" fill="#EBEBEB"/>
<path d="M118.46 87.7129H87.3188V88.9466H118.46V87.7129Z" fill="#EBEBEB"/>
<path d="M118.46 90.426H87.3188V91.6598H118.46V90.426Z" fill="#EBEBEB"/>
<path d="M118.46 93.1387H87.3188V94.3724H118.46V93.1387Z" fill="#EBEBEB"/>
<path d="M118.46 98.168H87.3188V99.4017H118.46V98.168Z" fill="#EBEBEB"/>
<path d="M118.46 100.879H87.3188V102.113H118.46V100.879Z" fill="#EBEBEB"/>
<path d="M118.46 103.594H87.3188V104.827H118.46V103.594Z" fill="#EBEBEB"/>
<path d="M118.46 106.309H87.3188V107.542H118.46V106.309Z" fill="#EBEBEB"/>
<path d="M118.46 109.018H87.3188V110.251H118.46V109.018Z" fill="#EBEBEB"/>
<path d="M118.46 114.445H87.3188V115.679H118.46V114.445Z" fill="#EBEBEB"/>
<path d="M108.31 117.158H87.3188V118.392H108.31V117.158Z" fill="#EBEBEB"/>
<path d="M109.07 116.379H108.934V119.167H109.07V116.379Z" fill="#263238"/>
<path d="M35.4571 81.9541H20.8015V85.2531H35.4571V81.9541Z" fill="#A6A6A6"/>
<path d="M51.8978 87.5255H20.8015V88.7592H51.8978V87.5255Z" fill="#EBEBEB"/>
<path d="M51.8978 90.2422H20.8015V91.4759H51.8978V90.2422Z" fill="#EBEBEB"/>
<path d="M51.8978 92.9529H20.8015V94.1866H51.8978V92.9529Z" fill="#EBEBEB"/>
<path d="M51.8978 95.6621H20.8015V96.8958H51.8978V95.6621Z" fill="#EBEBEB"/>
<path d="M51.8978 99.2754H20.8015V100.509H51.8978V99.2754Z" fill="#EBEBEB"/>
<path d="M51.8978 101.986H20.8015V103.22H51.8978V101.986Z" fill="#EBEBEB"/>
<path d="M124.299 57.9745L14.8723 57.9745V60.6408L124.299 60.6408V57.9745Z" fill="#005EFF"/>
<path d="M17.5609 59.3081C17.5618 59.4227 17.5287 59.535 17.4657 59.6307C17.4026 59.7264 17.3126 59.8012 17.207 59.8457C17.1014 59.8902 16.9849 59.9023 16.8724 59.8805C16.7599 59.8587 16.6564 59.8039 16.5751 59.7232C16.4937 59.6425 16.4382 59.5395 16.4155 59.4271C16.3928 59.3148 16.404 59.1983 16.4477 59.0923C16.4913 58.9863 16.5654 58.8957 16.6607 58.832C16.7559 58.7682 16.8679 58.7342 16.9825 58.7341C17.0582 58.7336 17.1334 58.748 17.2035 58.7765C17.2737 58.8051 17.3375 58.8473 17.3912 58.9006C17.445 58.954 17.4877 59.0175 17.5168 59.0874C17.546 59.1573 17.5609 59.2323 17.5609 59.3081Z" fill="#C7C7C7"/>
<path d="M19.9066 59.3081C19.9075 59.4227 19.8744 59.535 19.8114 59.6307C19.7483 59.7264 19.6583 59.8012 19.5527 59.8457C19.4471 59.8902 19.3306 59.9023 19.2181 59.8805C19.1056 59.8587 19.0021 59.8039 18.9208 59.7232C18.8394 59.6425 18.7839 59.5395 18.7612 59.4271C18.7385 59.3148 18.7497 59.1983 18.7934 59.0923C18.837 58.9863 18.9111 58.8957 19.0063 58.832C19.1016 58.7682 19.2136 58.7342 19.3282 58.7341C19.4039 58.7336 19.4791 58.748 19.5492 58.7765C19.6194 58.8051 19.6832 58.8473 19.7369 58.9006C19.7907 58.954 19.8334 59.0175 19.8625 59.0874C19.8917 59.1573 19.9066 59.2323 19.9066 59.3081Z" fill="white"/>
<path d="M22.2518 59.3081C22.2527 59.4229 22.2195 59.5353 22.1562 59.6311C22.093 59.727 22.0027 59.8018 21.8969 59.8461C21.791 59.8905 21.6743 59.9023 21.5617 59.8801C21.449 59.858 21.3456 59.8028 21.2644 59.7216C21.1832 59.6404 21.128 59.537 21.1059 59.4243C21.0837 59.3117 21.0955 59.195 21.1399 59.0891C21.1842 58.9833 21.259 58.893 21.3549 58.8298C21.4507 58.7665 21.5631 58.7333 21.6779 58.7341C21.8301 58.7341 21.9761 58.7946 22.0838 58.9023C22.1914 59.0099 22.2518 59.1559 22.2518 59.3081Z" fill="#005EFF"/>
<path opacity="0.1" d="M48.6902 98.6328H20.9788V103.215H48.6902V98.6328Z" fill="black"/>
</g>
<g filter="url(#filter1_d_56_2)">
<rect x="101.831" y="5" width="124.447" height="124.447" rx="8" transform="rotate(30 101.831 5)" fill="#F6F7FC"/>
</g>
<path d="M121.736 104.399L166.137 130.053L185.807 95.9579L141.406 70.3042L121.736 104.399Z" fill="#005EFF"/>
<path d="M141.521 80.3259C140.863 81.0781 140.464 82.022 140.383 83.0184C140.302 84.0148 140.543 85.0109 141.071 85.8597C141.599 86.7084 142.385 87.3649 143.314 87.7321C144.243 88.0993 145.266 88.1579 146.231 87.8991C147.196 87.6404 148.052 87.0781 148.673 86.2951C149.294 85.5122 149.647 84.5501 149.681 83.551C149.714 82.5518 149.425 81.5685 148.857 80.7461C148.289 79.9238 147.471 79.306 146.526 78.9839C145.652 78.6881 144.711 78.6576 143.82 78.8965C142.93 79.1353 142.13 79.6327 141.521 80.3259Z" fill="white"/>
<path opacity="0.2" d="M140.63 105.52L170.376 122.707L166.092 95.7717L140.63 105.52Z" fill="black"/>
<path opacity="0.1" d="M125.964 97.0708L152.353 112.318L146.051 92.7485L125.964 97.0708Z" fill="black"/>
<path opacity="0.1" d="M170.386 122.71L125.985 97.0566L121.746 104.404L166.147 130.058L170.386 122.71Z" fill="black"/>
<path d="M118.735 109.623C121.833 111.206 124.89 112.882 127.942 114.568C130.993 116.254 134.002 117.992 137.037 119.707C140.071 121.421 143.063 123.189 146.031 125.019C148.999 126.85 151.995 128.633 154.914 130.526C151.821 128.933 148.764 127.257 145.713 125.571C142.661 123.886 139.653 122.147 136.618 120.433C133.583 118.718 130.582 116.945 127.623 115.12C124.665 113.294 121.66 111.506 118.735 109.623Z" fill="#0100A8"/>
<path d="M116.568 113.379C118.921 114.532 121.224 115.772 123.502 117.01C125.779 118.249 128.062 119.568 130.323 120.836C132.584 122.103 134.851 123.451 137.044 124.835C139.238 126.219 141.509 127.582 143.654 129.028C141.307 127.865 138.989 126.629 136.721 125.396C134.452 124.163 132.193 122.781 129.904 121.562C127.616 120.342 125.368 118.94 123.183 117.562C120.999 116.184 118.748 114.832 116.568 113.379Z" fill="#0100A8"/>
<path d="M63.6854 88.4791L108.086 114.133L138.307 61.7515L93.9056 36.0978L63.6854 88.4791Z" fill="#0100A8"/>
<path d="M89.5861 53.8021C88.9283 54.5561 88.5306 55.502 88.4517 56.4998C88.3728 57.4976 88.617 58.4943 89.1481 59.3425C89.6791 60.1907 90.4689 60.8452 91.4006 61.2093C92.3323 61.5734 93.3563 61.6278 94.3212 61.3643C95.2861 61.1008 96.1407 60.5334 96.7584 59.7462C97.3761 58.959 97.7242 57.9937 97.7512 56.9931C97.7782 55.9926 97.4826 55.0099 96.9082 54.1905C96.3338 53.3711 95.5111 52.7585 94.5618 52.4433C93.6909 52.1541 92.754 52.1288 91.8688 52.3706C90.9836 52.6123 90.1895 53.1103 89.5861 53.8021Z" fill="white"/>
<path d="M88.6856 78.993L118.441 96.1849L114.147 69.2444L88.6856 78.993Z" fill="#010076"/>
<path d="M74.0291 70.5512L100.408 85.7926L94.1154 66.2289L74.0291 70.5512Z" fill="#0403CE"/>
<path d="M118.441 96.1811L74.04 70.5273L63.6911 88.4653L108.092 114.119L118.441 96.1811Z" fill="#0100A8"/>
<path d="M60.6808 93.6876C63.7827 95.2862 66.8302 96.9566 69.8818 98.6423C72.9334 100.328 75.9515 102.072 78.9767 103.781C82.0019 105.49 85.0129 107.269 87.9767 109.084C90.9404 110.9 93.9347 112.707 96.869 114.596C93.7616 113.007 90.7044 111.331 87.6528 109.646C84.6011 107.96 81.5927 106.222 78.5578 104.507C75.523 102.792 72.5313 101.025 69.5635 99.1941C66.5956 97.3632 63.6095 95.5863 60.6808 93.6876Z" fill="#0100A8"/>
<path d="M58.5139 97.4433C60.8612 98.6059 63.1639 99.846 65.4417 101.085C67.7194 102.323 70.012 103.648 72.2633 104.91C74.5146 106.172 76.7905 107.525 78.9844 108.909C81.1784 110.293 83.439 111.651 85.5994 113.093C83.2465 111.94 80.9438 110.7 78.6661 109.461C76.3884 108.222 74.0957 106.898 71.8444 105.636C69.5931 104.374 67.3173 103.02 65.1233 101.636C62.9293 100.253 60.6881 98.906 58.5139 97.4433Z" fill="#0100A8"/>
<defs>
<filter id="filter0_d_56_2" x="0.539795" y="20.7969" width="140.447" height="140.447" filterUnits="userSpaceOnUse" color-interpolation-filters="sRGB">
<feFlood flood-opacity="0" result="BackgroundImageFix"/>
<feColorMatrix in="SourceAlpha" type="matrix" values="0 0 0 0 0 0 0 0 0 0 0 0 0 0 0 0 0 0 127 0" result="hardAlpha"/>
<feOffset dy="0.5"/>
<feGaussianBlur stdDeviation="4"/>
<feComposite in2="hardAlpha" operator="out"/>
<feColorMatrix type="matrix" values="0 0 0 0 0.00392157 0 0 0 0 0 0 0 0 0 0.658824 0 0 0 0.08 0"/>
<feBlend mode="normal" in2="BackgroundImageFix" result="effect1_dropShadow_56_2"/>
<feBlend mode="normal" in="SourceGraphic" in2="effect1_dropShadow_56_2" result="shape"/>
</filter>
<filter id="filter1_d_56_2" x="34.5347" y="0.42688" width="180.144" height="180.144" filterUnits="userSpaceOnUse" color-interpolation-filters="sRGB">
<feFlood flood-opacity="0" result="BackgroundImageFix"/>
<feColorMatrix in="SourceAlpha" type="matrix" values="0 0 0 0 0 0 0 0 0 0 0 0 0 0 0 0 0 0 127 0" result="hardAlpha"/>
<feOffset dy="0.5"/>
<feGaussianBlur stdDeviation="4"/>
<feComposite in2="hardAlpha" operator="out"/>
<feColorMatrix type="matrix" values="0 0 0 0 0.00392157 0 0 0 0 0 0 0 0 0 0.658824 0 0 0 0.08 0"/>
<feBlend mode="normal" in2="BackgroundImageFix" result="effect1_dropShadow_56_2"/>
<feBlend mode="normal" in="SourceGraphic" in2="effect1_dropShadow_56_2" result="shape"/>
</filter>
</defs>
</svg>
