<svg width="148" height="150" viewBox="0 0 148 150" fill="none" xmlns="http://www.w3.org/2000/svg">
<g filter="url(#filter0_d_56_3)">
<rect x="8" y="8" width="132" height="133" rx="8" fill="#F6F7FC"/>
</g>
<path d="M130.547 70.4348C130.733 71.8751 130.863 73.3327 130.935 74.8052C130.797 74.8116 130.69 74.9282 130.696 75.066C130.732 75.8729 130.75 76.6844 130.75 77.5C130.75 78.3156 130.732 79.1271 130.696 79.934C130.69 80.0717 130.797 80.1884 130.935 80.1948C130.863 81.6673 130.733 83.1248 130.547 84.5651C130.41 84.5471 130.284 84.6431 130.266 84.7798C130.049 86.3982 129.761 87.9946 129.405 89.5657C129.374 89.7001 129.458 89.8339 129.593 89.8647C129.261 91.296 128.873 92.7064 128.432 94.0933C128.3 94.0512 128.16 94.1232 128.117 94.2544C127.616 95.8035 127.047 97.323 126.414 98.8096C126.36 98.9364 126.419 99.083 126.545 99.1373C125.964 100.484 125.331 101.803 124.648 103.092C124.526 103.028 124.375 103.073 124.31 103.195C123.542 104.627 122.713 106.022 121.825 107.376C121.749 107.491 121.781 107.646 121.896 107.722C121.088 108.942 120.233 110.129 119.332 111.281C119.224 111.196 119.067 111.214 118.982 111.322C117.977 112.596 116.917 113.824 115.804 115.005C115.71 115.106 115.714 115.264 115.815 115.358C114.808 116.418 113.759 117.439 112.672 118.419C112.58 118.316 112.422 118.307 112.319 118.399C111.111 119.478 109.854 120.505 108.554 121.478C108.443 121.561 108.421 121.717 108.503 121.828C107.33 122.697 106.122 123.523 104.881 124.302C104.808 124.185 104.654 124.149 104.537 124.222C103.163 125.076 101.75 125.872 100.299 126.609C100.176 126.672 100.127 126.822 100.189 126.945C98.8864 127.599 97.5545 128.205 96.1958 128.761C96.1439 128.633 95.9984 128.571 95.8706 128.623C94.3732 129.228 92.8434 129.77 91.2845 130.249C91.1527 130.289 91.0785 130.428 91.1186 130.56C89.7263 130.981 88.3111 131.349 86.8752 131.665C86.846 131.53 86.7132 131.444 86.5784 131.473C85.0039 131.812 83.4048 132.085 81.7839 132.291C81.6471 132.308 81.5503 132.433 81.5674 132.57C80.1261 132.747 78.668 132.87 77.1951 132.938C77.189 132.8 77.0726 132.693 76.9349 132.699C76.1276 132.733 75.3158 132.75 74.5 132.75C73.6842 132.75 72.8725 132.733 72.0651 132.699C71.9274 132.693 71.811 132.8 71.8049 132.938C70.332 132.87 68.8739 132.747 67.4326 132.57C67.4497 132.433 67.3529 132.308 67.2161 132.291C65.5952 132.085 63.9961 131.812 62.4216 131.473C62.2868 131.444 62.154 131.53 62.1248 131.665C60.6889 131.349 59.2737 130.981 57.8814 130.56C57.9215 130.428 57.8473 130.289 57.7155 130.249C56.1566 129.77 54.6268 129.228 53.1294 128.623C53.0016 128.571 52.8561 128.633 52.8042 128.761C51.4455 128.205 50.1136 127.599 48.811 126.945C48.8732 126.822 48.824 126.672 48.7011 126.609C47.2504 125.872 45.8366 125.076 44.463 124.222C44.3459 124.149 44.192 124.185 44.119 124.302C42.8778 123.523 41.6696 122.697 40.4971 121.828C40.5794 121.717 40.5567 121.561 40.4463 121.478C39.1456 120.505 37.8893 119.478 36.681 118.399C36.5782 118.307 36.4204 118.316 36.3284 118.419C35.2407 117.439 34.1922 116.418 33.1854 115.358C33.2856 115.264 33.2902 115.106 33.1956 115.005C32.0835 113.824 31.0232 112.596 30.0183 111.322C29.9329 111.214 29.776 111.196 29.6677 111.281C28.7672 110.129 27.9116 108.942 27.1036 107.722C27.2187 107.646 27.2507 107.491 27.1751 107.376C26.2871 106.022 25.4576 104.627 24.6904 103.195C24.6253 103.073 24.4741 103.028 24.3524 103.092C23.669 101.803 23.0356 100.484 22.4548 99.1373C22.5815 99.083 22.6403 98.9364 22.5863 98.8096C21.9531 97.323 21.3841 95.8035 20.8828 94.2544C20.8403 94.1232 20.6997 94.0512 20.5685 94.0933C20.1267 92.7064 19.7388 91.2961 19.4073 89.8647C19.5416 89.8339 19.6257 89.7002 19.5953 89.5657C19.239 87.9946 18.9508 86.3982 18.7339 84.7798C18.7156 84.6432 18.5901 84.5472 18.4535 84.5652C18.2672 83.1249 18.1371 81.6673 18.0654 80.1948C18.2031 80.1884 18.3097 80.0718 18.3036 79.934C18.268 79.1271 18.25 78.3156 18.25 77.5C18.25 76.6844 18.268 75.8729 18.3036 75.066C18.3097 74.9282 18.2031 74.8116 18.0654 74.8052C18.1371 73.3327 18.2672 71.8752 18.4535 70.4349C18.5901 70.4529 18.7156 70.3569 18.7339 70.2202C18.9508 68.6018 19.239 67.0054 19.5953 65.4343C19.6257 65.2998 19.5416 65.1661 19.4073 65.1353C19.7388 63.704 20.1267 62.2936 20.5685 60.9067C20.6997 60.9488 20.8403 60.8768 20.8828 60.7456C21.3841 59.1965 21.9531 57.677 22.5863 56.1904C22.6403 56.0636 22.5815 55.917 22.4548 55.8627C23.0356 54.5163 23.669 53.1971 24.3524 51.9076C24.4741 51.9724 24.6252 51.9265 24.6904 51.805C25.4576 50.373 26.2871 48.9781 27.1751 47.6238C27.2507 47.5085 27.2187 47.3538 27.1036 47.278C27.9116 46.0577 28.7672 44.8707 29.6676 43.7192C29.776 43.8044 29.9329 43.7858 30.0183 43.6775C31.0232 42.4044 32.0835 41.1756 33.1956 39.9945C33.2902 39.8941 33.2856 39.7362 33.1854 39.6415C34.1922 38.5818 35.2407 37.5609 36.3284 36.5813C36.4204 36.6839 36.5782 36.6928 36.681 36.6009C37.8893 35.5224 39.1456 34.4948 40.4463 33.5216C40.5567 33.439 40.5794 33.2826 40.4971 33.1721C41.6696 32.3028 42.8778 31.4774 44.119 30.6983C44.192 30.8152 44.3459 30.851 44.463 30.7782C45.8366 29.9245 47.2504 29.1275 48.7011 28.3908C48.824 28.3284 48.8732 28.1782 48.811 28.0552C50.1137 27.4009 51.4455 26.7947 52.8042 26.2392C52.8561 26.3669 53.0016 26.4286 53.1294 26.3769C54.6268 25.7724 56.1566 25.2295 57.7155 24.7515C57.8473 24.711 57.9215 24.5715 57.8814 24.4397C59.2737 24.0194 60.6889 23.6505 62.1248 23.3354C62.154 23.4701 62.2868 23.5557 62.4216 23.5267C63.9961 23.1884 65.5952 22.9148 67.2161 22.7089C67.3529 22.6916 67.4497 22.5667 67.4326 22.43C68.8739 22.2533 70.332 22.13 71.8049 22.062C71.811 22.1997 71.9274 22.3066 72.0651 22.3008C72.8724 22.2671 73.6842 22.25 74.5 22.25C75.3158 22.25 76.1275 22.2671 76.9349 22.3008C77.0726 22.3066 77.189 22.1997 77.1951 22.062C78.668 22.13 80.1261 22.2533 81.5674 22.43C81.5503 22.5667 81.6471 22.6916 81.7839 22.7089C83.4048 22.9148 85.0039 23.1884 86.5784 23.5267C86.7132 23.5557 86.846 23.4701 86.8752 23.3354C88.3111 23.6505 89.7263 24.0194 91.1186 24.4397C91.0785 24.5715 91.1527 24.711 91.2845 24.7515C92.8434 25.2295 94.3732 25.7724 95.8706 26.3769C95.9984 26.4286 96.1439 26.3669 96.1958 26.2392C97.5545 26.7947 98.8863 27.4009 100.189 28.0552C100.127 28.1782 100.176 28.3284 100.299 28.3908C101.75 29.1275 103.163 29.9245 104.537 30.7782C104.654 30.851 104.808 30.8152 104.881 30.6983C106.122 31.4774 107.33 32.3028 108.503 33.1721C108.421 33.2826 108.443 33.439 108.554 33.5216C109.854 34.4948 111.111 35.5224 112.319 36.6009C112.422 36.6928 112.58 36.684 112.672 36.5813C113.759 37.5609 114.808 38.5818 115.815 39.6415C115.714 39.7362 115.71 39.8941 115.804 39.9945C116.917 41.1756 117.977 42.4044 118.982 43.6775C119.067 43.7858 119.224 43.8044 119.332 43.7192C120.233 44.8706 121.088 46.0577 121.896 47.278C121.781 47.3538 121.749 47.5085 121.825 47.6238C122.713 48.9781 123.542 50.373 124.31 51.805C124.375 51.9265 124.526 51.9724 124.648 51.9076C125.331 53.1971 125.964 54.5163 126.545 55.8627C126.419 55.917 126.36 56.0636 126.414 56.1904C127.047 57.677 127.616 59.1965 128.117 60.7456C128.16 60.8768 128.3 60.9488 128.432 60.9067C128.873 62.2936 129.261 63.7039 129.593 65.1353C129.458 65.1661 129.374 65.2998 129.405 65.4343C129.761 67.0054 130.049 68.6017 130.266 70.2202C130.284 70.3568 130.41 70.4528 130.547 70.4348Z" stroke="#0100A8" stroke-opacity="0.22" stroke-width="0.5" stroke-linecap="round" stroke-linejoin="round" stroke-dasharray="5 5"/>
<circle cx="39.5" cy="113.5" r="22.5" fill="#F0FAFF"/>
<ellipse cx="108.5" cy="38" rx="24.5" ry="24" fill="#F0FAFF"/>
<ellipse cx="119" cy="103.5" rx="15" ry="15.5" fill="#F0FAFF"/>
<ellipse cx="30.5" cy="47" rx="15.5" ry="16" fill="#F0FAFF"/>
<path d="M76.1536 73.842L75.0532 73.2062H75.0524L73.9513 72.5703L72.8509 73.2062H72.8502L71.7498 73.842H71.749L70.6487 74.4778V75.7487L71.7498 76.3846L72.8509 77.0204L73.9513 77.6563L75.0524 78.2921L76.1536 78.9272L75.0524 79.563L73.9513 80.1988L72.8509 79.563L71.7498 78.9272V77.6563L70.6487 78.2921V79.563L71.7498 80.1988L72.8509 80.8339L73.9513 81.4697L75.0524 80.8339L76.1536 80.1988L77.2547 79.563V78.2921L76.1536 77.6563L75.0524 77.0204L73.9513 76.3846L72.8509 75.7487L71.7498 75.1137L72.8509 74.4778L73.9513 73.842L75.0524 74.4778L76.1536 75.1137V76.3846L77.2547 75.7487V74.4778L76.1536 73.842Z" fill="#005EFF"/>
<path d="M82.7599 82.8361V77.6582L81.6595 77.0231L80.5592 76.3873L81.6595 75.7514L82.7599 75.1164V68.7501C83.0089 68.6242 83.208 68.4179 83.3249 68.1647C83.4419 67.9114 83.4698 67.626 83.4042 67.3549C83.3385 67.0837 83.1831 66.8427 82.9633 66.671C82.7434 66.4993 82.4719 66.407 82.193 66.409C81.914 66.411 81.6439 66.5072 81.4265 66.682C81.2091 66.8568 81.0572 67.1 80.9954 67.3721C80.9336 67.6441 80.9656 67.9291 81.0862 68.1806C81.2067 68.4322 81.4088 68.6357 81.6595 68.758V69.3954V74.4805L80.5592 75.1164L79.4589 75.7514V73.2081L78.3585 72.5722L79.4589 71.9372V68.1229V66.852V65.9049C79.7081 65.7796 79.9077 65.5737 80.0252 65.3207C80.1427 65.0677 80.1712 64.7824 80.1061 64.5111C80.041 64.2398 79.8862 63.9985 79.6667 63.8263C79.4472 63.6541 79.1759 63.5612 78.897 63.5626C78.618 63.564 78.3477 63.6596 78.1299 63.834C77.9121 64.0083 77.7597 64.2512 77.6973 64.5231C77.635 64.795 77.6664 65.08 77.7864 65.3319C77.9064 65.5837 78.108 65.7876 78.3585 65.9104V66.2193V68.7619V71.3045L77.2582 71.9403L76.1578 71.3045L75.0575 70.6686L76.1578 70.0328L77.2582 69.3969V66.852L76.1578 66.2169L75.0575 65.5811L73.9571 64.9453L72.8568 65.5811L71.7564 66.2169L70.6561 66.852V69.3938L71.7564 70.0296L72.8568 70.6655L71.7564 71.3013L70.6561 71.9372L69.5557 71.3013V68.7587V66.2193V65.8892C69.8013 65.7564 69.9947 65.5445 70.1046 65.2879C70.2146 65.0313 70.2346 64.7451 70.1613 64.4757C70.0881 64.2063 69.926 63.9696 69.7013 63.8039C69.4766 63.6383 69.2025 63.5535 68.9235 63.5633C68.6445 63.573 68.377 63.6768 68.1644 63.8577C67.9519 64.0387 67.8067 64.2862 67.7525 64.56C67.6983 64.8338 67.7382 65.118 67.8658 65.3662C67.9934 65.6145 68.2012 65.8124 68.4554 65.9277V66.8481V68.119V71.9332L69.5557 72.5683L68.4554 73.2041V75.7467L67.3551 75.1117L66.2547 74.4758V69.3946V68.7344C66.5004 68.6019 66.6942 68.3903 66.8045 68.1338C66.9148 67.8774 66.9352 67.5912 66.8623 67.3217C66.7895 67.0522 66.6277 66.8153 66.4032 66.6493C66.1788 66.4834 65.9048 66.3982 65.6258 66.4075C65.3468 66.4169 65.0792 66.5203 64.8663 66.7009C64.6535 66.8816 64.508 67.1288 64.4534 67.4026C64.3988 67.6764 64.4383 67.9605 64.5655 68.209C64.6928 68.4575 64.9003 68.6556 65.1544 68.7713V75.1172L66.2547 75.7522L67.3551 76.3881L66.2547 77.0239L65.1544 77.659V82.8157C64.9006 82.9315 64.6935 83.1297 64.5665 83.3781C64.4396 83.6265 64.4004 83.9105 64.4552 84.184C64.51 84.4575 64.6556 84.7045 64.8684 84.8848C65.0812 85.0652 65.3487 85.1683 65.6275 85.1775C65.9063 85.1866 66.18 85.1013 66.4042 84.9353C66.6284 84.7693 66.79 84.5325 66.8626 84.2631C66.9352 83.9938 66.9147 83.7078 66.8043 83.4516C66.694 83.1955 66.5003 82.9841 66.2547 82.8518V79.5649V78.294L67.3551 77.6582L68.4554 77.0223V78.2932V79.5649V80.8382L69.5557 81.474L68.4554 82.1091V83.3808V85.66C68.2011 85.7752 67.9932 85.9729 67.8654 86.2211C67.7376 86.4693 67.6975 86.7534 67.7515 87.0273C67.8055 87.3011 67.9505 87.5487 68.163 87.7298C68.3754 87.9109 68.6428 88.0149 68.9218 88.0248C69.2008 88.0348 69.4749 87.9502 69.6998 87.7847C69.9246 87.6192 70.0869 87.3826 70.1603 87.1133C70.2337 86.844 70.214 86.5577 70.1042 86.3011C69.9945 86.0444 69.8012 85.8323 69.5557 85.6993V84.015V82.7433L70.6561 82.1075L71.7564 82.7433L72.8568 83.3792L73.9571 84.015L75.0575 83.3792L76.1578 82.7433L77.2582 82.1075L78.3585 82.7433V84.0142V85.6758C78.1078 85.7986 77.906 86.0026 77.7858 86.2546C77.6656 86.5066 77.6342 86.7918 77.6965 87.0639C77.7589 87.3361 77.9114 87.5791 78.1293 87.7536C78.3473 87.9282 78.6178 88.0239 78.8969 88.0253C79.1761 88.0267 79.4476 87.9337 79.6672 87.7613C79.8869 87.589 80.0418 87.3475 80.1069 87.076C80.172 86.8045 80.1434 86.519 80.0257 86.2658C79.9081 86.0126 79.7083 85.8066 79.4589 85.6813V83.3784V82.1075L78.3585 81.4724L79.4589 80.8366V79.5649V78.294V77.0223L80.5592 77.6582L81.6595 78.294V79.5649V82.8282C81.4083 82.9505 81.2059 83.1542 81.085 83.4061C80.9641 83.658 80.932 83.9434 80.9938 84.2158C81.0556 84.4883 81.2077 84.7319 81.4254 84.907C81.6431 85.0822 81.9136 85.1786 82.1929 85.1806C82.4723 85.1825 82.7442 85.09 82.9644 84.918C83.1845 84.746 83.3401 84.5046 83.4058 84.2331C83.4714 83.9615 83.4434 83.6757 83.3261 83.4221C83.2089 83.1685 83.0093 82.962 82.7599 82.8361ZM72.8513 69.3962L71.7509 68.7611V67.4871L72.8513 66.8512L73.9516 66.2162L75.052 66.8512L76.1523 67.4871V68.7587L75.052 69.3938L73.9516 70.0296L72.8513 69.3962ZM78.353 78.9314V80.2031L77.2527 80.839L76.1523 81.4748L75.052 82.1099L73.9516 82.7457L72.8513 82.1099L71.7509 81.4748L70.6506 80.839L69.5502 80.2031V78.9291V76.3865V75.1156V73.8431L70.6506 73.2073L71.7509 72.5714L72.8513 71.9364L73.9516 71.3005L75.052 71.9364L76.1523 72.5714L77.2527 73.2073L78.353 73.8431V75.114V76.3849V78.9275V78.9314Z" fill="#005EFF"/>
<path d="M114.008 102.344C114.025 102.622 114.149 102.889 114.363 103.103C114.577 103.318 114.869 103.468 115.195 103.533C115.034 103.921 115.034 104.342 115.195 104.73C115.479 105.382 117.062 105.382 117.062 105.382C117.122 105.499 117.222 105.598 117.348 105.669C117.475 105.74 117.623 105.78 117.776 105.783C117.776 105.826 117.853 105.855 117.879 105.891L118.103 106.149C118.3 107.446 118.266 108.807 117.5 109.502C116.838 109.559 116.176 109.638 115.513 109.724C115.195 109.76 114.885 109.81 114.575 109.86C116.343 110.709 118.376 111.099 120.411 110.979C122.447 110.859 124.393 110.235 126 109.187H125.079C124.546 109.187 123.935 109.187 123.281 109.187V109.151C122.872 109.137 122.476 109.022 122.145 108.821C121.814 108.619 121.563 108.34 121.423 108.019C121.319 107.734 121.275 107.435 121.294 107.137C121.591 107.087 121.88 107.008 122.155 106.901C122.951 106.573 123.566 106.004 123.875 105.31C123.924 105.215 123.964 105.117 123.996 105.016C124.245 104.185 124.32 103.325 124.219 102.473C124.399 102.386 124.554 102.268 124.675 102.128C124.795 101.987 124.877 101.826 124.916 101.656C124.988 101.434 124.953 101.197 124.818 100.996C124.683 100.795 124.459 100.646 124.193 100.581C124.505 100.518 124.779 100.365 124.97 100.151C125.16 99.9359 125.254 99.6723 125.234 99.4059C125.26 99.2774 125.253 99.1457 125.212 99.0199C125.172 98.894 125.099 98.7768 125 98.6763C124.9 98.5757 124.776 98.4942 124.636 98.4371C124.495 98.38 124.341 98.3487 124.185 98.3454C124.185 98.3454 124.555 97.9011 123.832 97.0628C123.648 96.8372 123.368 96.6784 123.048 96.6185C122.729 96.5587 122.394 96.6022 122.112 96.7403C121.894 96.4725 121.588 96.2625 121.231 96.1355C120.875 96.0084 120.481 95.9696 120.098 96.0238C119.777 96.0603 119.469 96.1566 119.198 96.3054C118.927 96.4542 118.7 96.6518 118.533 96.8836C118.533 96.8836 118.533 96.2674 117.113 96.6114C116.705 96.7351 116.36 96.9704 116.133 97.2789C115.907 97.5873 115.812 97.9507 115.866 98.3096C115.737 98.254 115.595 98.2216 115.45 98.2145C115.304 98.2074 115.159 98.2257 115.023 98.2682C114.887 98.3108 114.763 98.3766 114.659 98.4615C114.555 98.5463 114.474 98.6484 114.421 98.761C113.93 99.6137 114.997 101.104 114.997 101.104C114.685 101.183 114.415 101.349 114.234 101.576C114.054 101.802 113.974 102.074 114.008 102.344Z" fill="#005EFF"/>
<path d="M51 121.191C48.658 124.21 45.2586 126.221 41.4922 126.816C37.7257 127.412 33.8744 126.547 30.7202 124.399C31.2156 123.254 31.5308 122.562 31.5308 122.562C33.3994 121.969 35.3049 121.502 37.235 121.161C37.7999 120.677 38.4755 120.341 39.2014 120.183C39.5107 119.059 39.4741 117.867 39.0963 116.765C38.5091 116.358 38.0004 115.848 37.5952 115.259C37.2856 115.036 37.0122 114.767 36.7846 114.461C36.3193 114.265 33.137 112.775 32.9718 107.535C32.9571 107.324 32.9571 107.113 32.9718 106.902C31.9811 106.797 30.9454 107.113 31.6659 109.131C32.8968 112.609 31.6659 114.431 31.6659 114.431C31.6936 113.661 31.6535 112.89 31.5458 112.127C31.5458 115.726 29.6094 115.952 29.6094 115.952C29.6094 115.952 30.8403 114.657 29.024 110.667C27.2076 106.676 27.733 101.241 31.2006 101.015C31.9206 100.956 32.6443 101.071 33.3106 101.352C33.9768 101.632 34.566 102.069 35.0283 102.626C35.9279 101.787 37.0707 101.257 38.2907 101.114C39.5107 100.97 40.7446 101.221 41.8133 101.828C41.8133 101.828 44.9206 101.075 45.8062 101.828C45.9863 102.009 45.8062 102.415 45.476 102.957C46.3691 103.555 46.994 104.479 47.2172 105.532C47.4158 106.363 47.4423 107.226 47.2951 108.068C47.148 108.91 46.8302 109.712 46.3616 110.426C46.7819 114.371 46.1064 117.337 42.9691 117.608C42.9691 117.713 42.9691 117.804 42.9691 117.909C42.9691 118.014 42.9691 118.18 42.9691 118.3C42.934 118.872 43.0105 119.445 43.1943 119.987C43.6383 120.073 44.0749 120.194 44.5003 120.348C47.3073 120.348 50.5046 120.649 50.5046 120.649C50.6845 120.816 50.8502 120.997 51 121.191Z" fill="#005EFF"/>
<path d="M35 52.7892C34.2915 53.511 33.4279 54.0814 32.4669 54.4622C31.506 54.843 30.4701 55.0254 29.4284 54.9972C28.3868 54.9689 27.3636 54.7307 26.4274 54.2985C25.4911 53.8663 24.6635 53.2501 24 52.4911L24.1194 52.4549C24.2195 52.3228 24.3419 52.2072 24.4818 52.1126C24.4798 52.0938 24.4798 52.075 24.4818 52.0562H24.6097C24.8521 51.9209 25.1298 51.8525 25.4112 51.8589C25.4893 51.853 25.5677 51.853 25.6457 51.8589L26.1019 51.7783C26.1019 51.7783 26.1019 51.8226 26.1019 51.8991L28.5663 52.0562C28.7801 51.9044 28.9381 51.6932 29.0182 51.4521C29.1034 51.1917 29.1338 50.9181 29.1078 50.6467C28.7519 50.6291 28.4036 50.5427 28.0845 50.393C27.4923 50.1071 27.0357 49.6211 26.8054 49.0317C26.7754 48.9512 26.7497 48.8692 26.7287 48.7861C26.5207 47.9285 26.5076 47.0391 26.6903 46.1764H26.6136C26.5947 46.1735 26.5778 46.164 26.5659 46.1498C26.5541 46.1357 26.5483 46.1179 26.5496 46.0999C26.5512 46.0893 26.555 46.0791 26.5608 46.0698C26.5666 46.0606 26.5743 46.0526 26.5834 46.0462C26.5925 46.0398 26.6029 46.0352 26.614 46.0327C26.625 46.0302 26.6365 46.0297 26.6477 46.0314H26.669C26.6274 45.509 26.6691 44.9836 26.7926 44.4729C26.6695 44.226 26.6057 43.9565 26.6057 43.6836C26.6057 43.4107 26.6695 43.1411 26.7926 42.8942C27.0655 42.5237 26.8523 42.7251 27.5686 42.6647C28.2849 42.6043 27.8543 42.0082 28.3105 42.0002C28.7667 41.9921 28.6729 42.266 29.2314 42.4673C29.7899 42.6687 29.5853 42.0646 30.2248 42.0082C30.8643 41.9518 30.9496 42.411 31.4058 42.5237C31.6969 42.5807 31.9973 42.5807 32.2884 42.5237C32.6209 42.5237 32.6508 43.4419 32.7915 43.6111C32.9322 43.7802 33.1709 43.5265 33.4736 44.0138C33.5119 44.0833 33.5295 44.1612 33.5248 44.2393C33.5248 44.8474 32.7232 46.0033 32.7232 46.0033C32.6849 46.2691 32.6337 46.555 32.557 46.8611C32.68 46.9787 32.7604 47.1303 32.7864 47.2938C32.8125 47.4574 32.7829 47.6245 32.7019 47.7712C32.546 48.0698 32.2997 48.318 31.9942 48.484C31.8649 48.7501 31.7108 49.0049 31.5337 49.2452C31.3333 50.3003 31.2353 51.5447 31.6147 52.3301C32.753 52.4093 33.8841 52.5627 35 52.7892Z" fill="#005EFF"/>
<path d="M117 48.076C114.88 50.3296 112.134 51.6992 109.222 51.956C106.311 52.2127 103.408 51.3412 101 49.4869C101.93 49.3366 102.905 49.2114 103.895 49.0945C104.639 47.2161 104.468 44.2355 104.059 41.7059C103.707 41.1271 103.401 40.5154 103.143 39.8775C102.529 39.4935 102.031 38.9119 101.714 38.2077C101.552 37.8558 101.491 37.4554 101.542 37.063C101.593 36.6706 101.752 36.306 101.997 36.0204C101.754 34.8901 101.617 33.7345 101.588 32.5723H101.528C101.528 32.5723 100.501 28.1224 104.341 26.4944C108.181 24.8664 112.059 27.7802 112.059 27.7802C112.059 27.7802 112.892 26.0436 113.882 26.4944C114.73 26.8785 114.276 28.1141 114.12 28.4898C114.334 28.1251 114.636 27.8357 114.991 27.6549C115.668 27.3126 116.606 28.2811 114.5 30.6438C114.283 30.8894 114.032 31.0926 113.755 31.2449C113.911 32.3133 113.931 33.4011 113.815 34.4758C114.181 36.5378 114.153 38.6635 113.733 40.7124C113.691 40.9167 113.636 41.1176 113.569 41.3135C113.122 42.7213 112.211 43.8835 111.024 44.5611C110.386 44.9348 109.682 45.1458 108.963 45.179C108.92 45.8198 108.978 46.4641 109.134 47.0825C109.301 47.6571 109.62 48.161 110.049 48.5268C112.081 48.3765 113.852 48.2596 115.02 48.1511C115.025 48.0566 115.025 47.9618 115.02 47.8673L115.943 48.0593C116.294 48.0084 116.65 48.014 117 48.076Z" fill="#005EFF"/>
<defs>
<filter id="filter0_d_56_3" x="0" y="0.5" width="148" height="149" filterUnits="userSpaceOnUse" color-interpolation-filters="sRGB">
<feFlood flood-opacity="0" result="BackgroundImageFix"/>
<feColorMatrix in="SourceAlpha" type="matrix" values="0 0 0 0 0 0 0 0 0 0 0 0 0 0 0 0 0 0 127 0" result="hardAlpha"/>
<feOffset dy="0.5"/>
<feGaussianBlur stdDeviation="4"/>
<feComposite in2="hardAlpha" operator="out"/>
<feColorMatrix type="matrix" values="0 0 0 0 0.00392157 0 0 0 0 0 0 0 0 0 0.658824 0 0 0 0.08 0"/>
<feBlend mode="normal" in2="BackgroundImageFix" result="effect1_dropShadow_56_3"/>
<feBlend mode="normal" in="SourceGraphic" in2="effect1_dropShadow_56_3" result="shape"/>
</filter>
</defs>
</svg>
