<svg width="216" height="182" viewBox="0 0 216 182" fill="none" xmlns="http://www.w3.org/2000/svg">
<g filter="url(#filter0_d_51_2)">
<rect x="110.13" y="18.3641" width="115.397" height="115.397" rx="8" transform="rotate(30 110.13 18.3641)" fill="#F6F7FC"/>
</g>
<path d="M167.651 120.914C180.745 109.066 181.755 88.8463 169.907 75.752C158.059 62.6576 137.839 61.6475 124.745 73.4957C111.65 85.344 110.64 105.564 122.489 118.658C134.337 131.752 154.557 132.763 167.651 120.914Z" fill="#005EFF"/>
<path d="M140.669 84.6727C141.763 85.196 142.047 86.8966 141.3 88.4892C140.554 90.0818 139.054 90.9365 137.956 90.4213C136.857 89.9062 136.57 88.1927 137.32 86.6129C138.069 85.0331 139.57 84.1575 140.669 84.6727Z" fill="#F6F7FC"/>
<path d="M158.459 94.5143C157.44 93.8612 155.838 94.5376 154.905 96.0224C153.972 97.5072 154.036 99.2324 155.06 99.8775C156.083 100.522 157.681 99.8543 158.622 98.3741C159.563 96.894 159.514 95.1235 158.459 94.5143Z" fill="#F6F7FC"/>
<path d="M156.253 105.307C156.274 105.384 155.883 105.537 155.16 105.758C154.129 106.076 153.071 106.302 152 106.433C150.397 106.625 148.775 106.588 147.182 106.324C145.209 105.997 143.322 105.275 141.633 104.203C139.968 103.119 138.504 101.754 137.308 100.169C136.323 98.9068 135.463 97.5517 134.742 96.1228C133.537 93.6741 133.088 92.0518 133.201 91.9872C133.314 91.9226 134.046 93.4486 135.361 95.7443C136.145 97.0837 137.032 98.3597 138.016 99.5605C139.193 101.028 140.595 102.301 142.168 103.332C143.749 104.336 145.502 105.036 147.339 105.398C148.851 105.687 150.392 105.792 151.93 105.711C153.246 105.605 154.323 105.502 155.066 105.358C155.81 105.213 156.236 105.243 156.253 105.307Z" fill="#F6F7FC"/>
<path d="M145.512 79.1736C145.322 79.389 144.051 78.536 142.331 77.8786C140.612 77.2211 139.102 76.9877 139.106 76.6983C139.111 76.4089 140.786 76.2071 142.694 76.9514C144.601 77.6957 145.724 78.9933 145.512 79.1736Z" fill="#F6F7FC"/>
<path d="M167.061 93.3378C166.794 93.4435 166.029 92.0709 164.726 90.6911C163.423 89.3114 162.124 88.4315 162.257 88.1834C162.389 87.9352 164.028 88.4702 165.454 90.0295C166.88 91.5888 167.314 93.2564 167.061 93.3378Z" fill="#F6F7FC"/>
<path d="M134.8 90.2673C134.905 90.3283 134.929 90.6991 134.64 91.257C134.256 91.9511 133.657 92.5016 132.933 92.8255C132.211 93.1668 131.397 93.2596 130.617 93.0895C130.029 92.9451 129.763 92.694 129.765 92.5975C129.905 92.3541 131.134 92.5874 132.483 91.9378C133.832 91.2882 134.533 90.1674 134.8 90.2673Z" fill="#F6F7FC"/>
<path d="M158.276 107.22C158.215 107.325 157.905 107.374 157.456 107.158C156.876 106.857 156.419 106.363 156.163 105.762C155.894 105.161 155.844 104.485 156.022 103.851C156.176 103.378 156.42 103.162 156.538 103.219C156.782 103.36 156.589 104.331 157.077 105.359C157.566 106.388 158.359 106.943 158.276 107.22Z" fill="#F6F7FC"/>
<g filter="url(#filter1_d_51_2)">
<rect x="6.24927" y="39.7389" width="115.397" height="115.397" rx="8" transform="rotate(-17 6.24927 39.7389)" fill="#F6F7FC"/>
</g>
<path d="M90.475 68.5272L85.6523 70.0017L70.5133 58.7189L67.4626 49.114C67.4626 49.114 59.8989 51.0262 64.7501 63.282C69.6013 75.5378 67.6218 72.6749 67.6218 72.6749C67.6218 72.6749 51.8875 77.7521 51.0079 79.5455C50.3767 80.8437 54.9266 96.6597 57.4796 105.197C58.0231 107.317 59.2694 109.189 61.0145 110.507C62.7596 111.826 64.9001 112.513 67.0854 112.455C67.6979 112.421 68.304 112.312 68.8904 112.132C72.8426 110.924 91.8864 101.29 91.8864 101.29L100.194 98.636L90.475 68.5272Z" fill="#005EFF"/>
<path d="M102.316 61.3425L110.042 95.2743L102.372 97.7343L92.0972 65.3476L102.316 61.3425Z" fill="#005EFF"/>
<defs>
<filter id="filter0_d_51_2" x="47.3579" y="13.791" width="167.782" height="167.782" filterUnits="userSpaceOnUse" color-interpolation-filters="sRGB">
<feFlood flood-opacity="0" result="BackgroundImageFix"/>
<feColorMatrix in="SourceAlpha" type="matrix" values="0 0 0 0 0 0 0 0 0 0 0 0 0 0 0 0 0 0 127 0" result="hardAlpha"/>
<feOffset dy="0.5"/>
<feGaussianBlur stdDeviation="4"/>
<feComposite in2="hardAlpha" operator="out"/>
<feColorMatrix type="matrix" values="0 0 0 0 0.00392157 0 0 0 0 0 0 0 0 0 0.658824 0 0 0 0.08 0"/>
<feBlend mode="normal" in2="BackgroundImageFix" result="effect1_dropShadow_51_2"/>
<feBlend mode="normal" in="SourceGraphic" in2="effect1_dropShadow_51_2" result="shape"/>
</filter>
<filter id="filter1_d_51_2" x="0.236572" y="0.487305" width="156.119" height="156.119" filterUnits="userSpaceOnUse" color-interpolation-filters="sRGB">
<feFlood flood-opacity="0" result="BackgroundImageFix"/>
<feColorMatrix in="SourceAlpha" type="matrix" values="0 0 0 0 0 0 0 0 0 0 0 0 0 0 0 0 0 0 127 0" result="hardAlpha"/>
<feOffset dy="0.5"/>
<feGaussianBlur stdDeviation="4"/>
<feComposite in2="hardAlpha" operator="out"/>
<feColorMatrix type="matrix" values="0 0 0 0 0.00392157 0 0 0 0 0 0 0 0 0 0.658824 0 0 0 0.08 0"/>
<feBlend mode="normal" in2="BackgroundImageFix" result="effect1_dropShadow_51_2"/>
<feBlend mode="normal" in="SourceGraphic" in2="effect1_dropShadow_51_2" result="shape"/>
</filter>
</defs>
</svg>
